<svg xmlns="http://www.w3.org/2000/svg" width="295" height="211">
    <path fill="#FFF" fill-rule="evenodd" d="M37.032.251h220.936c20.337 0 31.826 19.043 26.111 40.824l-39.777 151.59c-2.679 10.211-15.049 18.084-27.759 18.084H78.457c-12.71 0-25.08-7.873-27.759-18.084L10.921 41.075C5.205 19.294 16.695.251 37.032.251z"/>
    <path fill="#FFF" fill-rule="evenodd" stroke="#FFF" stroke-width="3" d="M289.125 88C302.311 88 274 52.689 274 65.875S263.311 89.75 250.125 89.75s15.125 35.311 15.125 22.125S275.939 88 289.125 88zM5.875 88C-7.311 88 21 52.689 21 65.875S31.689 89.75 44.875 89.75 29.75 125.061 29.75 111.875 19.061 88 5.875 88z"/>
</svg>
