<svg 
 xmlns="http://www.w3.org/2000/svg"
 xmlns:xlink="http://www.w3.org/1999/xlink"
 width="295px" height="211px">
<path fill-rule="evenodd"  stroke-width="0px" stroke="rgb(255, 255, 255)" fill="rgb(255, 255, 255)"
 d="M5.875,88.000 C-7.311,88.000 21.000,52.689 21.000,65.875 C21.000,79.061 31.689,89.750 44.875,89.750 C58.061,89.750 29.750,125.061 29.750,111.875 C29.750,98.689 19.061,88.000 5.875,88.000 Z"/>
<path fill-rule="evenodd"  fill="rgb(255, 255, 255)"
 d="M37.032,0.251 L257.968,0.251 C278.305,0.251 289.794,19.294 284.079,41.075 L244.302,192.665 C241.623,202.876 229.253,210.749 216.543,210.749 L78.457,210.749 C65.747,210.749 53.377,202.876 50.698,192.665 L10.921,41.075 C5.205,19.294 16.695,0.251 37.032,0.251 Z"/>
<path fill-rule="evenodd"  stroke-width="0px" stroke="rgb(255, 255, 255)" fill="rgb(255, 255, 255)"
 d="M289.125,88.000 C302.311,88.000 274.000,52.689 274.000,65.875 C274.000,79.061 263.311,89.750 250.125,89.750 C236.939,89.750 265.250,125.061 265.250,111.875 C265.250,98.689 275.939,88.000 289.125,88.000 Z"/>
</svg>