<svg xmlns="http://www.w3.org/2000/svg" width="48" height="48">
    <path fill="#3674DE" fill-rule="evenodd" d="M45.362 19.306l-4.476 4.546c.29.442.523.915.697 1.447.669 2.125.117 4.486-1.482 6.051l-3.924 3.867.93 5.491a5.948 5.948 0 0 1-2.326 5.786 5.733 5.733 0 0 1-3.401 1.122c-.93 0-1.86-.236-2.703-.679l-4.854-2.598-4.855 2.598a5.827 5.827 0 0 1-2.703.679 5.733 5.733 0 0 1-3.401-1.122 5.95 5.95 0 0 1-2.326-5.786l.931-5.491-3.924-3.867c-1.599-1.565-2.152-3.926-1.483-6.051a5.98 5.98 0 0 1 .698-1.447l-4.477-4.546a5.902 5.902 0 0 1-1.424-6.022l2.906-8.857C4.55 2.066 6.672.471 9.114.383H38.531c2.442.088 4.564 1.683 5.349 4.044l2.907 8.857a5.905 5.905 0 0 1-1.425 6.022zM14.317 29.815l3.401 3.366-1.453 8.531 7.558-4.044 7.557 4.044-1.453-8.531 3.401-3.366 2.732-2.686-8.458-1.27-.873-1.771-2.906-5.992-2.907 5.992-.872 1.771-8.459 1.27 2.732 2.686zM6.382 15.143l5.843 5.934 2.732-.413L9.288 6.287l-2.906 8.856zm9.185-8.856l3.372 8.62a5.777 5.777 0 0 1 4.884-2.716 5.775 5.775 0 0 1 4.883 2.716l3.372-8.62H15.567zm22.79 0l-5.669 14.377 2.733.413 5.843-5.934-2.907-8.856z"/>
</svg>
