<svg xmlns="http://www.w3.org/2000/svg" width="48" height="48">
    <path fill="#3674DE" fill-rule="evenodd" d="M29.986 15.18a2.961 2.961 0 0 0 2.955 2.949h11.822c.769 0 1.448-.295 1.98-.767a2.96 2.96 0 0 0 .976-2.182V3.383A2.961 2.961 0 0 0 44.763.434a2.96 2.96 0 0 0-2.955 2.949v5.072C36.805 2.785 29.177-.462 20.819.651 10.354 2.045 1.913 10.583.617 21.038-1.16 35.371 10.056 47.62 24.075 47.62c11.894 0 21.769-8.816 23.405-20.241.254-1.768-1.159-3.352-2.949-3.352a2.937 2.937 0 0 0-2.904 2.531c-1.405 9.763-10.82 16.971-21.371 14.764-6.696-1.4-12.11-6.802-13.513-13.484-2.399-11.42 6.302-21.506 17.332-21.506 5.231 0 9.96 2.271 13.181 5.898h-4.315a2.962 2.962 0 0 0-2.955 2.95z"/>
</svg>
