<svg xmlns="http://www.w3.org/2000/svg" width="48" height="48">
    <path fill="#3674DE" fill-rule="evenodd" d="M25.929 47.312a5.874 5.874 0 0 1-3.734 0C14.672 44.805.446 34.855.446 15.143a5.903 5.903 0 0 1 3.263-5.28l17.713-8.857a5.906 5.906 0 0 1 5.28 0l17.713 8.857c2 1 3.264 3.044 3.264 5.28 0 19.712-14.227 29.662-21.75 32.169zM24.062 6.287L6.35 15.143c0 20.665 17.712 26.569 17.712 26.569s17.712-5.904 17.712-26.569L24.062 6.287zM21.11 32.856a2.944 2.944 0 0 1-2.087-.865l-5.904-5.904a2.952 2.952 0 0 1 4.174-4.175l3.817 3.817 9.721-9.721a2.95 2.95 0 0 1 4.174 0 2.949 2.949 0 0 1 0 4.174L23.197 31.991a2.944 2.944 0 0 1-2.087.865z"/>
</svg>
